<svg width="24" height="24" viewBox="0 0 24 24" fill="none" xmlns="http://www.w3.org/2000/svg">
<path d="M12 19.2C12 20.04 12.156 20.844 12.42 21.6H2.4C1.76348 21.6 1.15303 21.3471 0.702944 20.8971C0.252856 20.447 0 19.8365 0 19.2V2.4C0 1.08 1.08 0 2.4 0H19.2C19.8365 0 20.447 0.252856 20.8971 0.702944C21.3471 1.15303 21.6 1.76348 21.6 2.4V12.42C20.844 12.156 20.04 12 19.2 12V2.4H2.4V19.2H12ZM13.152 11.148L9.852 15.396L7.5 12.564L4.2 16.8H12.42C12.9 15.456 13.764 14.292 14.88 13.452L13.152 11.148ZM20.4 18V14.4H18V18H14.4V20.4H18V24H20.4V20.4H24V18H20.4Z" fill="#8A8A8A"/>
</svg>
